<svg xmlns="http://www.w3.org/2000/svg" width="103" height="97" viewBox="0 0 103 97">
    <defs>
        <filter id="a" width="163.7%" height="167%" x="-31.9%" y="-28.4%" filterUnits="objectBoundingBox">
            <feOffset dy="5" in="SourceAlpha" result="shadowOffsetOuter1"/>
            <feGaussianBlur in="shadowOffsetOuter1" result="shadowBlurOuter1" stdDeviation="10"/>
            <feColorMatrix in="shadowBlurOuter1" result="shadowMatrixOuter1" values="0 0 0 0 0.0823529412 0 0 0 0 0.0941176471 0 0 0 0 0.11372549 0 0 0 0.15 0"/>
            <feMerge>
                <feMergeNode in="shadowMatrixOuter1"/>
                <feMergeNode in="SourceGraphic"/>
            </feMerge>
        </filter>
    </defs>
    <g fill="none" fill-rule="nonzero" filter="url(#a)" transform="translate(10 14)">
        <path fill="#FFF" d="M71.702 56.63c2.521-10.483 1.598-26.203 1.512-26.968v-.29c-.885-3.576-3.243-5.799-6.29-5.799-.884 0-1.768.194-2.554.484-.786-2.416-3.243-4.252-5.994-4.252-.983 0-1.966.193-2.85.676-.983-2.03-3.145-3.479-5.503-3.189-.786 0-1.474.097-2.162.387V10.14c0-3.382-2.85-6.185-6.289-6.185-3.44 0-6.289 2.803-6.289 6.185v28.991l-6.19-5.412c-1.376-1.16-2.949-1.74-4.62-1.643-1.571.097-3.144.87-4.126 2.126-1.67 2.126-1.376 5.412.884 8.408.295.386 7.567 9.47 15.035 15.268.393.387.786.484 1.277.484.59 0 1.18-.29 1.573-.773.786-.87.59-2.126-.295-2.803-6.977-5.412-13.954-14.109-14.347-14.592-1.081-1.353-1.474-2.9-.983-3.479.295-.387.786-.676 1.278-.676.491 0 .982.193 1.474.58l9.237 8.02c.393.483 1.08.87 1.768.87 1.18 0 2.064-.87 2.064-2.03V9.949c0-1.16.983-2.126 2.162-2.126 1.18 0 2.162.966 2.162 2.126v23.29c0 1.159.884 2.028 2.063 2.028 1.18 0 2.064-.87 2.064-2.029V23.38c0-1.16.983-2.126 2.162-2.126 1.179 0 2.162.967 2.162 2.126v10.534c0 1.16.884 2.029 2.063 2.029 1.18 0 2.064-.87 2.064-2.03v-7.827c0-1.16.982-2.126 2.162-2.126 1.179 0 2.162.966 2.162 2.126v7.828c0 1.16.884 2.029 2.063 2.029 1.18 0 2.064-.87 2.064-2.03v-4.058c0-1.16.982-2.126 2.162-2.126 1.474 0 2.063 1.546 2.26 2.416.086 1.705.862 16.279-1.388 25.525a2.06 2.06 0 0 0-.038.128l-.295 1.116a2.043 2.043 0 0 0 1.476 2.496 2.071 2.071 0 0 0 2.458-1.262c.025-.067.046-.132.064-.2l.295-1.115a2.05 2.05 0 0 0 .043-.204z"/>
        <path fill="#FF8300" d="M13.137 25.635c2.488-8.408 6.592-15.552 12.307-21.41l-3.26-.113a1.707 1.707 0 0 1-1.659-1.755 1.71 1.71 0 0 1 1.78-1.636l7.62.262c.95.033 1.693.819 1.66 1.755l-.27 7.632a1.71 1.71 0 0 1-1.78 1.637 1.707 1.707 0 0 1-1.66-1.755l.134-3.76c-5.416 5.521-9.292 12.285-11.633 20.314l3.18-1.668a1.733 1.733 0 0 1 2.327.702 1.685 1.685 0 0 1-.711 2.295l-6.733 3.53c-.839.44-1.88.126-2.326-.701L8.478 24.22a1.685 1.685 0 0 1 .711-2.295 1.733 1.733 0 0 1 2.327.702l1.621 3.007z"/>
    </g>
</svg>
