<?xml version="1.0" encoding="UTF-8"?>
<svg width="25px" height="22px" viewBox="0 0 25 22" version="1.1" xmlns="http://www.w3.org/2000/svg" xmlns:xlink="http://www.w3.org/1999/xlink">
    <!-- Generator: Sketch 52.2 (67145) - http://www.bohemiancoding.com/sketch -->
    <title>icon-movie</title>
    <desc>Created with Sketch.</desc>
    <g id="UI" stroke="none" stroke-width="1" fill="none" fill-rule="evenodd">
        <g id="Major-Group" transform="translate(-12.000000, -403.000000)" stroke="#989FAE" stroke-width="1.5">
            <g id="icon-movie" transform="translate(13.000000, 404.000000)">
                <rect id="Rectangle-3" x="5" y="0" width="13" height="10"></rect>
                <rect id="Rectangle-3-Copy" x="5" y="10" width="13" height="10"></rect>
                <polygon id="Rectangle-3-Copy-3" points="0 5 5 5 5 10 0 10"></polygon>
                <path d="M1.5,0 L5,0 L5,5 L0,5 L0,1.5 C-1.01453063e-16,0.671572875 0.671572875,1.52179594e-16 1.5,0 Z" id="Rectangle-3-Copy-6"></path>
                <path d="M0,15 L5,15 L5,20 L1.5,20 C0.671572875,20 1.01453063e-16,19.3284271 0,18.5 L0,15 Z" id="Rectangle-3-Copy-2"></path>
                <polygon id="Rectangle-3-Copy-8" points="0 10 5 10 5 15 0 15"></polygon>
                <path d="M18,0 L21.5,0 C22.3284271,-1.52179594e-16 23,0.671572875 23,1.5 L23,5 L18,5 L18,0 Z" id="Rectangle-3-Copy-7"></path>
                <polygon id="Rectangle-3-Copy-9" points="18 5 23 5 23 10 18 10"></polygon>
                <path d="M18,15 L23,15 L23,18.5 C23,19.3284271 22.3284271,20 21.5,20 L18,20 L18,15 Z" id="Rectangle-3-Copy-4"></path>
                <polygon id="Rectangle-3-Copy-9" points="18 10 23 10 23 15 18 15"></polygon>
            </g>
        </g>
    </g>
</svg>