<svg xmlns="http://www.w3.org/2000/svg" xmlns:xlink="http://www.w3.org/1999/xlink" width="176" height="120" viewBox="0 0 176 120">
    <defs>
        <path id="a" d="M108 0v34H0V0h108z"/>
    </defs>
    <g fill="none" fill-rule="evenodd">
        <path fill="#E6E6E6" d="M121 60c0 33.137-26.863 60-60 60S1 93.137 1 60 27.863 0 61 0s60 26.863 60 60"/>
        <path fill="#CDCDCD" d="M98 59.5C98 85.733 76.733 107 50.5 107S3 85.733 3 59.5 24.267 12 50.5 12 98 33.267 98 59.5"/>
        <path fill="#FFF" d="M90.028 103c-8.313 0-15.244-1.448-20.028-2.862l8.125-19.52c2.266 1 6.552 2.627 12.177 3.55 2.889.475 5.804.715 8.664.715 7.377 0 14.655-1.585 21.63-4.709C131.224 75.414 142.114 73 152.965 73c8.317 0 15.25 1.448 20.035 2.86l-8.126 19.524c-2.269-1-6.567-2.631-12.177-3.553a53.74 53.74 0 0 0-8.662-.713c-7.38 0-14.657 1.584-21.632 4.708-10.627 4.76-21.518 7.174-32.37 7.174h-.005z"/>
        <g transform="translate(68 71)">
            <mask id="b" fill="#fff">
                <use xlink:href="#a"/>
            </mask>
            <path fill="#CDCDCD" d="M85.538 0c-9.56 0-20.857 1.85-33.182 7.441-6.78 3.076-13.796 4.621-20.943 4.621-2.78 0-5.577-.233-8.39-.7-8.177-1.36-13.377-4.25-13.428-4.28l.028.017-.055.048L0 30.43C5.36 32.213 13.067 34 22.457 34h.003c9.56 0 20.86-1.851 33.182-7.441 6.78-3.076 13.798-4.62 20.947-4.62 2.778 0 5.575.232 8.387.7 8.178 1.36 13.377 4.249 13.428 4.278l-.027-.016.054-.048L108 3.568C102.64 1.787 94.926 0 85.538 0M85.4 4C92.46 4 98.488 5.093 103 6.303l-6.677 16.376a53.161 53.161 0 0 0-10.9-3.031 54.133 54.133 0 0 0-8.934-.752c-7.62 0-15.13 1.667-22.323 4.957C43.793 28.596 33.173 31 22.596 31A68.196 68.196 0 0 1 5 28.697l6.676-16.376a53.22 53.22 0 0 0 10.9 3.032c2.977.5 5.984.752 8.936.752 7.618 0 15.128-1.668 22.32-4.957C64.206 6.405 74.826 4 85.4 4" mask="url(#b)"/>
        </g>
        <path stroke="#F1F1F1" stroke-width="5" d="M100 85l-7 18"/>
        <path stroke="#CDCDCD" stroke-width="5" d="M151 73l-7 18M127 77l-8 21"/>
        <path fill="#CDCDCD" d="M79.5 104C54.963 104 35 84.037 35 59.5 35 34.962 54.963 15 79.5 15c24.538 0 44.5 19.962 44.5 44.5 0 24.537-19.962 44.5-44.5 44.5"/>
        <path fill="#E9E9E9" d="M79.5 14C53.86 14 33 34.86 33 60.5S53.86 107 79.5 107 126 86.14 126 60.5 105.14 14 79.5 14m.5 4c23.749 0 43 19.251 43 43 0 23.748-19.251 43-43 43-23.748 0-43-19.252-43-43 0-23.749 19.252-43 43-43"/>
        <path stroke="#FFF" stroke-width="5" d="M30 92h25"/>
        <path fill="#FFF" d="M88.5 104C63.962 104 44 84.037 44 59.5 44 34.962 63.962 15 88.5 15c24.537 0 44.5 19.962 44.5 44.5 0 24.537-19.963 44.5-44.5 44.5"/>
        <path fill="#CDCDCD" d="M88.5 14C62.86 14 42 34.86 42 60.5S62.86 107 88.5 107 135 86.14 135 60.5 114.14 14 88.5 14m.5 4c23.748 0 43 19.251 43 43 0 23.748-19.252 43-43 43-23.749 0-43-19.252-43-43 0-23.749 19.251-43 43-43"/>
        <path stroke="#CDCDCD" stroke-width="5" d="M93 60a4 4 0 1 1-8 0 4 4 0 0 1 8 0zM99 35c0 5.524-4.478 10-10 10-5.523 0-10-4.476-10-10 0-5.523 4.477-10 10-10 5.522 0 10 4.477 10 10zM68.09 42.492c5.25 1.706 8.124 7.346 6.418 12.597-1.706 5.252-7.346 8.125-12.597 6.42-5.25-1.707-8.125-7.348-6.42-12.598 1.707-5.25 7.347-8.125 12.598-6.42zM65.91 74.122c3.246-4.467 9.5-5.458 13.967-2.212 4.468 3.246 5.459 9.5 2.213 13.967-3.247 4.468-9.5 5.459-13.968 2.212-4.467-3.246-5.458-9.499-2.211-13.967zM94.91 85.877c-3.246-4.468-2.255-10.72 2.213-13.966 4.467-3.246 10.72-2.257 13.967 2.211 3.246 4.468 2.255 10.721-2.213 13.967-4.467 3.247-10.72 2.256-13.967-2.212zM115.09 61.508c-5.252 1.706-10.892-1.167-12.598-6.419-1.706-5.25 1.168-10.89 6.418-12.597 5.252-1.706 10.891 1.168 12.598 6.418 1.706 5.252-1.167 10.891-6.419 12.598z"/>
        <path stroke="#FFF" stroke-width="2" d="M34 22h15M22 82h23M14 82h4"/>
        <path stroke="#FFF" stroke-width="5" d="M0 38h44"/>
        <path stroke="#FFF" stroke-width="2" d="M0 75h30M6 30h27"/>
    </g>
</svg>
