<svg xmlns="http://www.w3.org/2000/svg" width="162" height="120" viewBox="0 0 162 120">
    <g fill="none" fill-rule="evenodd">
        <path fill="#E6E6E6" d="M135 60c0 33.137-26.64 60-59.5 60S16 93.137 16 60 42.64 0 75.5 0 135 26.863 135 60"/>
        <path fill="#CDCDCD" d="M113 59.5c0 26.233-21.267 47.5-47.5 47.5S18 85.733 18 59.5 39.267 12 65.5 12 113 33.267 113 59.5"/>
        <path stroke="#FFF" stroke-width="5" d="M60 46H14"/>
        <path stroke="#FFF" stroke-width="2" d="M60 75H10"/>
        <path stroke="#FFF" stroke-width="5" d="M41 66H0"/>
        <path fill="#FFF" d="M138.16 87v-1.789a.346.346 0 1 0-.692 0V87H72.97v-1.789c0-3.43-2.777-6.22-6.191-6.22H65V42.01h1.78c3.414 0 6.19-2.792 6.19-6.222V34h64.498v1.789a.347.347 0 0 0 .692 0V34h13.869v1.789c0 3.43 2.777 6.221 6.191 6.221H160v36.98h-1.78c-3.414 0-6.191 2.79-6.191 6.221V87h-13.87z"/>
        <path fill="#CDCDCD" d="M154.075 32H71.926v3.54a4.391 4.391 0 0 1-4.386 4.388H64v40.144h3.54a4.391 4.391 0 0 1 4.385 4.387V88H154.075v-3.54a4.391 4.391 0 0 1 4.385-4.388H162V39.928h-3.54a4.391 4.391 0 0 1-4.385-4.387V32zm-3.007 4c0 4.387 3.552 7.941 7.932 7.941V77.06c-4.38 0-7.932 3.556-7.932 7.941h-10.26a2.117 2.117 0 1 0-4.231 0H75.932c0-4.385-3.551-7.941-7.932-7.941V43.94c4.381 0 7.932-3.554 7.932-7.941h60.645a2.116 2.116 0 1 0 4.231 0h10.26z"/>
        <path stroke="#CDCDCD" stroke-width="2" d="M138 47v4"/>
        <path stroke="#CDCDCD" stroke-dasharray="12.365,6.182" stroke-width="2" d="M138 55v11"/>
        <path stroke="#CDCDCD" stroke-width="2" d="M138 69v4M145.35 41h-2.624a7.629 7.629 0 0 1-5.263 2.134A7.63 7.63 0 0 1 132.198 41H79.652A13.56 13.56 0 0 1 73 47.771V72.23A13.557 13.557 0 0 1 79.652 79h52.546a7.629 7.629 0 0 1 5.265-2.133c1.99 0 3.864.795 5.263 2.133h2.623A13.553 13.553 0 0 1 152 72.229V47.77A13.556 13.556 0 0 1 145.35 41z"/>
        <path stroke="#CDCDCD" stroke-width="5" d="M85 67h21M85 53h39M85 60h39"/>
        <path stroke="#FFF" stroke-width="2" d="M85 27H20M47 94h-8M85 94H53M50 19H15"/>
    </g>
</svg>
