<?xml version="1.0" encoding="UTF-8"?>
<svg width="17px" height="22px" viewBox="0 0 17 22" version="1.1" xmlns="http://www.w3.org/2000/svg" xmlns:xlink="http://www.w3.org/1999/xlink">
    <!-- Generator: Sketch 52.2 (67145) - http://www.bohemiancoding.com/sketch -->
    <title>icon-location</title>
    <desc>Created with Sketch.</desc>
    <g id="UI" stroke="none" stroke-width="1" fill="none" fill-rule="evenodd">
        <g id="Major-Group" transform="translate(-44.000000, -403.000000)" fill-rule="nonzero" stroke="#989FAE" stroke-width="1.5">
            <g id="icon-location" transform="translate(45.000000, 404.000000)">
                <g id="Group">
                    <path d="M7.38431792,0.125470669 C3.61576946,0.125470669 0.483800139,3.1116726 0.229168487,6.90088681 C0.127315826,8.58219378 0.662042296,10.313689 1.7569584,11.7440546 L7.1042231,19.2722948 C7.1806126,19.3726713 7.28246526,19.4228596 7.40978108,19.4228596 C7.53709691,19.4228596 7.66441273,19.3726713 7.71533906,19.2722948 L13.0371406,11.7440546 C14.1320567,10.2885949 14.6667832,8.58219378 14.5649305,6.87579268 C14.2848357,3.1116726 11.1528664,0.125470669 7.38431792,0.125470669 Z" id="Shape"></path>
                    <path d="M7.38431792,4.46675583 C5.80560167,4.46675583 4.50698025,5.74655665 4.50698025,7.32748708 C4.50698025,8.90841752 5.80560167,10.1882183 7.38431792,10.1882183 C8.96303416,10.1882183 10.2616556,8.90841752 10.2616556,7.32748708 C10.2616556,5.74655665 8.96303416,4.46675583 7.38431792,4.46675583 Z" id="Shape"></path>
                </g>
            </g>
        </g>
    </g>
</svg>