<?xml version="1.0" encoding="UTF-8"?>
<svg width="110px" height="157px" viewBox="0 0 110 157" version="1.1" xmlns="http://www.w3.org/2000/svg" xmlns:xlink="http://www.w3.org/1999/xlink">
    <!-- Generator: Sketch 52.2 (67145) - http://www.bohemiancoding.com/sketch -->
    <title>mock-img copy 2</title>
    <desc>Created with Sketch.</desc>
    <defs>
        <rect id="path-1" x="0" y="0" width="110" height="157" rx="4"></rect>
        <polygon id="path-3" points="17.6110431 0.0814205607 1.35636895e-05 0.0814205607 1.35636895e-05 21.2564187 17.6110431 21.2564187 17.6110431 0.0814205607"></polygon>
        <polygon id="path-5" points="21.3471257 21.4205607 0.0790376374 21.4205607 0.0790376374 0.00339813084 21.3471257 0.00339813084"></polygon>
    </defs>
    <g id="Symbols" stroke="none" stroke-width="1" fill="none" fill-rule="evenodd">
        <g id="movie-item/img-loading">
            <g id="mock-img-copy-2">
                <g id="Group-2">
                    <g id="spiderman_homecoming_ver6_xlg">
                        <mask id="mask-2" fill="white">
                            <use xlink:href="#path-1"></use>
                        </mask>
                        <use id="Mask" fill="#F5F6F8" xlink:href="#path-1"></use>
                        <g id="tmn-logo-grey-scale" mask="url(#mask-2)">
                            <g transform="translate(33.000000, 66.000000)" id="Page-1">
                                <g>
                                    <g id="Group-3" transform="translate(0.000000, 0.030729)">
                                        <mask id="mask-4" fill="white">
                                            <use xlink:href="#path-3"></use>
                                        </mask>
                                        <g id="Clip-2"></g>
                                        <path d="M12.3393893,1.13410093 C12.1625486,0.552829907 11.5468728,0.081353271 10.9617217,0.081353271 L9.72991951,0.081353271 L0.786400275,0.081353271 C0.201812363,0.081353271 -0.128327747,0.552829907 0.0470486264,1.13410093 L5.79324368,20.2025495 C5.96895797,20.7844935 6.58542225,21.2564187 7.17001016,21.2564187 L13.2803618,21.2564187 L15.5246613,21.2564187 C16.1098124,21.2564187 16.7666008,20.7844935 16.993903,20.2025495 L17.6110431,18.6189981 L12.3393893,1.13410093 Z" id="Fill-1" fill="#C1C1C1" mask="url(#mask-4)"></path>
                                    </g>
                                    <path d="M24.3722247,5.87378692 L17.8929857,5.87378692 L14.3253099,5.87378692 C13.6613126,5.87378692 13.3761148,6.3453757 13.1702137,6.92664673 L8.48168352,20.230385 C8.48100769,20.2327402 8.48021923,20.2355439 8.47965604,20.2380112 C8.26981264,20.8163664 7.63251044,21.2839178 7.05096374,21.2839178 L12.4624005,21.2839178 L18.9375846,21.2839178 C19.5218346,21.2839178 20.1626286,20.8115439 20.3688676,20.230385 L25.0572852,6.92664673 C25.2627357,6.3453757 24.9563621,5.87378692 24.3722247,5.87378692" id="Fill-4" fill="#B7B7B7"></path>
                                    <path d="M25.8390448,6.9209271 C25.6624294,6.33954393 25.0467536,5.86806729 24.4616025,5.86806729 L23.2298003,5.86806729 L14.2860558,5.86806729 C13.7018058,5.86806729 13.3713277,6.33954393 13.5471547,6.9209271 L18.3206135,22.865114 C18.4966657,23.4469458 19.1130173,23.9185346 19.6976052,23.9185346 L25.8080695,23.9185346 L28.052031,23.9185346 C28.6371821,23.9185346 29.2940832,23.4469458 29.5213854,22.865114 L30.1385255,21.281114 L25.8390448,6.9209271 Z" id="Fill-6" fill="#ECECEC"></path>
                                    <g id="Group-10" transform="translate(19.598901, 2.498019)">
                                        <mask id="mask-6" fill="white">
                                            <use xlink:href="#path-5"></use>
                                        </mask>
                                        <g id="Clip-9"></g>
                                        <path d="M20.6229662,0.00339813084 L16.5064085,0.00339813084 L9.82453489,0.00339813084 C9.24017225,0.00339813084 8.58315852,0.474762617 8.35529313,1.05659439 L1.5473783,20.3670617 C1.54568874,20.3715477 1.54388654,20.3753607 1.54276016,20.3797346 C1.31129038,20.9558467 0.660246429,21.4205944 0.0790376374,21.4205944 L2.19425467,21.4205944 L8.87691676,21.4205944 L10.7482739,21.4205944 L12.9923481,21.4205944 C13.5765981,21.4205944 14.2345129,20.9490056 14.460914,20.3670617 L21.2697299,1.05659439 C21.4969195,0.474762617 21.2068783,0.00339813084 20.6229662,0.00339813084" id="Fill-8" fill="#D6D6D6" mask="url(#mask-6)"></path>
                                    </g>
                                </g>
                            </g>
                        </g>
                    </g>
                </g>
            </g>
        </g>
    </g>
</svg>