<svg xmlns="http://www.w3.org/2000/svg" width="122" height="119" viewBox="0 0 122 119">
    <g fill="none" fill-rule="evenodd">
        <path fill="#CDCDCD" d="M116 13.58l-14.724 14.725L82.59 46.99l-1.368 1.37 1.368 1.367.295.296 1.073 1.073 1.651 1.65-2.737 2.737-2.723-2.722-2.737-2.738-6.023 6.024-3.905-3.905 6.023-6.023-2.738-2.738-2.723-2.723 2.737-2.737 1.652 1.651 1.071 1.072.297.297 1.368 1.368 1.37-1.368 18.725-18.727L109.95 7.531a4.249 4.249 0 0 1 3.024-1.254c1.142 0 2.217.446 3.025 1.254a4.248 4.248 0 0 1 1.254 3.025 4.25 4.25 0 0 1-1.254 3.025zm-6.292 86.26a6.932 6.932 0 0 1 2.044 4.934 6.933 6.933 0 0 1-2.044 4.934 6.932 6.932 0 0 1-4.934 2.044 6.933 6.933 0 0 1-4.934-2.044L61.522 71.389l-9.38-9.38L41.41 51.278l-1.298.783c-10.586 6.389-17.812 1.698-21.174-1.664L6.588 38.047c-.691-.966-5.528-8.208-.375-14.981l16.803 16.803L39.87 23.017 23.066 6.213c6.783-5.159 14.031-.305 14.981.375l12.35 12.35c3.363 3.363 8.052 10.587 1.663 21.175l-.783 1.296L62.01 52.142l9.38 9.38 38.318 38.318zm-82.355.242l-.648 3.288-.36 1.827-12.257 8.49-2.122-2.122-2.123-2.123 8.491-12.257 1.764-.347 3.35-.66 28.694-28.694 3.905 3.905c-13.772 13.77-28.694 28.693-28.694 28.693zm85.621-97.676a8.096 8.096 0 0 0-5.762 2.388L92.238 19.769a52.892 52.892 0 0 0-31.68-10.477c-4.405 0-8.678.55-12.77 1.563L40.68 3.746l-.197-.172C36.468.522 26.787-3.161 18.87 4.755l-1.368 1.368 12.711 12.712A53.398 53.398 0 0 0 18.55 29.929L6.123 17.5l-1.368 1.37C-3.16 26.785.521 36.467 3.574 40.482l6.224 6.236a53.022 53.022 0 0 0-2.37 15.703A52.873 52.873 0 0 0 17.42 93.42l-1.376.271-.894 1.29-8.49 12.257-1.839 2.656 2.285 2.284 2.122 2.124 2.123 2.123 2.284 2.284 2.657-1.84 12.256-8.49 1.29-.893.3-1.516a52.869 52.869 0 0 0 30.419 9.582 52.882 52.882 0 0 0 30.222-9.43l6.324 6.323a10.775 10.775 0 0 0 7.67 3.178c2.898 0 5.623-1.129 7.67-3.178a10.775 10.775 0 0 0 3.179-7.671c0-2.898-1.129-5.623-3.178-7.67l-6.712-6.712c5.042-8.124 7.955-17.706 7.955-27.97a52.871 52.871 0 0 0-10.02-31.036l15.068-15.068a8.094 8.094 0 0 0 2.388-5.762 8.096 8.096 0 0 0-2.388-5.762 8.094 8.094 0 0 0-5.762-2.388z"/>
        <path fill="#F3F3F3" d="M107.425 102.199a3.662 3.662 0 1 0-5.18-5.179 3.662 3.662 0 0 0 5.18 5.179"/>
    </g>
</svg>
