<svg xmlns="http://www.w3.org/2000/svg" xmlns:xlink="http://www.w3.org/1999/xlink" width="150" height="150" viewBox="0 0 150 150">
    <defs>
        <path id="a" d="M10.16 2.404A17.054 17.054 0 0 0 6.185 5.06a16.972 16.972 0 0 0-4.614 6.788 16.854 16.854 0 0 0-.998 4.645c-.027.402-.061.803-.061 1.212 0 1.413.192 2.778.516 4.09.198.799.442 1.579.748 2.327 2.532 6.197 8.612 10.568 15.72 10.568 9.382 0 16.987-7.604 16.987-16.985 0-7.91-5.413-14.536-12.73-16.426a16.92 16.92 0 0 0-2.397-.453 17.307 17.307 0 0 0-1.86-.106c-2.628 0-5.111.615-7.336 1.683zm4.932 10.243V8.04h4.812v10.709h-4.812v-6.1zm0 14.234h4.813v-4.322h-4.813v4.322z"/>
        <path id="c" d="M9.657 1.683a17.012 17.012 0 0 0-8.599 9.445 16.869 16.869 0 0 0-.997 4.647c-.03.4-.06.8-.06 1.21 0 1.414.19 2.779.515 4.09.199.798.443 1.58.747 2.328C3.8 29.6 9.885 33.972 17 33.972c9.39 0 17-7.607 17-16.987C34 9.076 28.582 2.45 21.258.56a16.962 16.962 0 0 0-2.397-.453A17.105 17.105 0 0 0 17 0a16.91 16.91 0 0 0-7.343 1.683zm4.934 10.243V7.318h4.819v10.71H14.59v-6.102zm0 14.234h4.818v-4.322H14.59v4.322z"/>
    </defs>
    <g fill="none" fill-rule="evenodd">
        <path fill="#FFF" d="M-112-188h375v667h-375z"/>
        <g transform="translate(105 93)">
            <mask id="b" fill="#fff">
                <use xlink:href="#a"/>
            </mask>
            <path fill="#E9E9E9" d="M-4.635 39.838h44.264V-4.426H-4.635z" mask="url(#b)"/>
        </g>
        <path fill="#F3F3F3" d="M132 76.406c0 30.563-24.74 55.339-55.256 55.339-30.517 0-55.256-24.776-55.256-55.339 0-30.562 24.739-55.339 55.256-55.339 30.516 0 55.255 24.777 55.255 55.34"/>
        <path fill="#F3F3F3" d="M125.336 61.839L109.29 21.684a12.658 12.658 0 0 0-6.813-6.983 12.636 12.636 0 0 0-9.747-.12L18.192 44.456c-6.52 2.617-9.701 10.057-7.093 16.586l17.382 43.494v11.24c0 7.036 5.715 12.76 12.74 12.76h80.282c7.026 0 12.74-5.724 12.74-12.76v-41.77c0-5.699-3.75-10.534-8.907-12.167"/>
        <path fill="#FFF" d="M41.221 71.31c-1.15 0-2.123.975-2.123 2.127v41.77c0 1.152.972 2.127 2.123 2.127h80.282c1.151 0 2.123-.975 2.123-2.127v-41.77c0-1.152-.972-2.127-2.123-2.127H41.221zm80.282 52.403H41.221c-4.683 0-8.494-3.815-8.494-8.506v-41.77c0-4.69 3.811-8.506 8.494-8.506h80.282c4.684 0 8.494 3.816 8.494 8.506v41.77c0 4.69-3.81 8.506-8.494 8.506z"/>
        <path fill="#FFF" d="M109.479 88.698a5.62 5.62 0 0 1 5.616 5.624 5.62 5.62 0 0 1-5.616 5.624 5.62 5.62 0 0 1-5.615-5.624 5.62 5.62 0 0 1 5.615-5.624M81.36 79.53c9.38 0 16.984 6.623 16.984 14.792 0 8.17-7.603 14.791-16.984 14.791-9.38 0-16.985-6.622-16.985-14.79 0-8.17 7.605-14.792 16.985-14.792M53.24 88.703a5.615 5.615 0 0 1 5.611 5.619 5.615 5.615 0 0 1-5.61 5.62 5.615 5.615 0 0 1-5.61-5.62 5.615 5.615 0 0 1 5.61-5.62M26.547 70.512l-5.59-13.99c-.428-1.07.113-2.336 1.181-2.765l74.536-29.873c.249-.1.509-.148.765-.148.847 0 1.667.51 1.996 1.331l13.482 33.74h6.86l-14.428-36.111c-1.74-4.354-6.697-6.479-11.04-4.736L19.77 47.835c-4.347 1.744-6.468 6.704-4.728 11.056L26.547 87.68V70.512z"/>
        <path fill="#FFF" d="M84.623 58.806a13.033 13.033 0 0 0-.914-4.94c-3.03-7.585-12.546-10.903-21.255-7.413-5.84 2.34-9.819 7.151-10.902 12.353h33.071z"/>
        <path fill="#F3F3F3" d="M82.73 101.12a4.95 4.95 0 0 0 .553-.06 3.82 3.82 0 0 0 .529-.128 2.444 2.444 0 0 0 .96-.542h-.008a2.355 2.355 0 0 0 .738-1.758 2.79 2.79 0 0 0-.46-1.521h.009c-.28-.427-.728-.788-1.346-1.084a6.247 6.247 0 0 0-.975-.387v5.48zm0-8.182c.125-.033.258-.08.397-.14.14-.06.287-.132.44-.214a1.89 1.89 0 0 0 .507-.41c.165-.181.313-.403.444-.666.132-.268.231-.523.3-.763a2.6 2.6 0 0 0 .103-.7c0-.553-.227-1.02-.682-1.404-.262-.257-.766-.44-1.509-.55v4.847zm-3.644 8.191h1.444v-5.661h-1.444v5.661zm.001-8.002h1.444v-5.086h-1.444v5.086zm3.643 16.923h-2.199v-6.571h-4.307V85.666h4.307v-7.408h2.2v7.458c1.19.022 2.192.208 3.001.559h-.008c.629.262 1.135.742 1.518 1.437.169.323.298.648.386.974.088.326.13.66.13 1.006 0 1.507-.585 2.736-1.755 3.69-.143.12-.286.231-.432.333-.143.101-.31.209-.494.323a5.99 5.99 0 0 1 1.455.76 5.43 5.43 0 0 1 1.153 1.114c.497.658.746 1.506.746 2.547 0 .904-.23 1.743-.689 2.514a4.751 4.751 0 0 1-1.87 1.792c-.805.443-1.851.681-3.142.714v6.57z"/>
        <path fill="#FFF" d="M141.803 115.992c0 11.494-9.303 20.811-20.78 20.811-11.476 0-20.78-9.317-20.78-20.811s9.304-20.812 20.78-20.812c11.477 0 20.78 9.318 20.78 20.812"/>
        <g transform="translate(104 97)">
            <mask id="d" fill="#fff">
                <use xlink:href="#c"/>
            </mask>
            <path fill="#E9E9E9" d="M-5.152 39.118h44.304V-5.147H-5.152z" mask="url(#d)"/>
        </g>
    </g>
</svg>
