<svg xmlns="http://www.w3.org/2000/svg" width="150" height="150" viewBox="0 0 150 150">
    <g fill="none" fill-rule="evenodd">
        <path fill="#FFF" d="M-113-162h375v667h-375z"/>
        <path fill="#FFF" fill-rule="nonzero" d="M-113-162h375v667h-375z"/>
        <path fill="#FAFAFA" d="M142.553 77.276c0 29.424-23.853 53.276-53.276 53.276C59.853 130.552 36 106.7 36 77.276 36 47.852 59.853 24 89.277 24c29.423 0 53.276 23.852 53.276 53.276"/>
        <path fill="#FAFAFA" d="M64.5 76.411h-44c-.825 0-1.5-.675-1.5-1.5s.675-1.5 1.5-1.5h44c.825 0 1.5.675 1.5 1.5s-.675 1.5-1.5 1.5M48.872 84.668H6.129A2.135 2.135 0 0 1 4 82.54c0-1.171.958-2.129 2.129-2.129h42.743c1.17 0 2.128.958 2.128 2.129 0 1.17-.958 2.128-2.128 2.128"/>
        <path fill="#F3F3F3" d="M145.553 77.276c0 29.424-23.853 53.276-53.276 53.276C62.853 130.552 39 106.7 39 77.276 39 47.852 62.853 24 92.277 24c29.423 0 53.276 23.852 53.276 53.276"/>
        <path fill="#FAFAFA" d="M34.91 94.028h-7.602A2.316 2.316 0 0 1 25 91.719a2.315 2.315 0 0 1 2.308-2.308h7.602a2.315 2.315 0 0 1 2.309 2.308 2.316 2.316 0 0 1-2.309 2.309M20.5 94.028h-1.191A2.316 2.316 0 0 1 17 91.719a2.315 2.315 0 0 1 2.309-2.308H20.5a2.315 2.315 0 0 1 2.309 2.308 2.316 2.316 0 0 1-2.309 2.309"/>
        <path fill="#F3F3F3" d="M68.5 75.411h-44c-.825 0-1.5-.675-1.5-1.5s.675-1.5 1.5-1.5h44c.825 0 1.5.675 1.5 1.5s-.675 1.5-1.5 1.5M51.872 83.668H9.129A2.135 2.135 0 0 1 7 81.54c0-1.171.958-2.129 2.129-2.129h42.743c1.17 0 2.128.958 2.128 2.129 0 1.17-.958 2.128-2.128 2.128M36.91 93.028h-7.602A2.316 2.316 0 0 1 27 90.719a2.315 2.315 0 0 1 2.308-2.308h7.602a2.315 2.315 0 0 1 2.309 2.308 2.316 2.316 0 0 1-2.309 2.309M22.5 93.028h-1.191A2.316 2.316 0 0 1 19 90.719a2.315 2.315 0 0 1 2.309-2.308H22.5a2.315 2.315 0 0 1 2.309 2.308 2.316 2.316 0 0 1-2.309 2.309"/>
        <path fill="#F3F3F3" d="M122.71 99.318l-47.294 8.403-11.872-66.82 47.295-8.404 11.872 66.821zm-20.718 20.669a4.88 4.88 0 1 1-1.708-9.611 4.88 4.88 0 0 1 1.708 9.611zM75.004 30.469l21.486-3.818c.543-.096 1.128.636 1.306 1.639.178 1.003-.118 1.895-.661 1.992l-21.486 3.817c-.546.097-1.124-.64-1.302-1.643-.178-1.002.11-1.89.657-1.987zm31.687-10.35L63.17 27.851c-4.166.74-6.928 4.715-6.19 8.873l15.703 88.378a7.643 7.643 0 0 0 8.865 6.19l43.522-7.733a7.647 7.647 0 0 0 6.19-8.865l-15.702-88.377c-.74-4.158-4.71-6.937-8.867-6.198z"/>
        <path stroke="#F3F3F3" stroke-width="12" d="M122.71 99.318l-47.294 8.403-11.872-66.82 47.295-8.404 11.872 66.821zm-20.718 20.669a4.88 4.88 0 1 1-1.708-9.611 4.88 4.88 0 0 1 1.708 9.611zM75.004 30.469l21.486-3.818c.543-.096 1.128.636 1.306 1.639.178 1.003-.118 1.895-.661 1.992l-21.486 3.817c-.546.097-1.124-.64-1.302-1.643-.178-1.002.11-1.89.657-1.987zm31.687-10.35L63.17 27.851c-4.166.74-6.928 4.715-6.19 8.873l15.703 88.378a7.643 7.643 0 0 0 8.865 6.19l43.522-7.733a7.647 7.647 0 0 0 6.19-8.865l-15.702-88.377c-.74-4.158-4.71-6.937-8.867-6.198z"/>
        <path fill="#FFF" d="M122.89 99.286l-47.294 8.403-11.872-66.82 47.295-8.403 11.872 66.82zm-20.72 20.67a4.881 4.881 0 0 1-1.707-9.612 4.88 4.88 0 0 1 1.708 9.612zm-26.986-89.52L96.67 26.62c.543-.096 1.128.636 1.306 1.638.178 1.003-.118 1.896-.661 1.992l-21.486 3.817c-.546.097-1.124-.64-1.302-1.642-.178-1.003.11-1.89.657-1.988zm31.687-10.35L63.349 27.82c-4.165.74-6.927 4.715-6.188 8.872l15.702 88.378a7.643 7.643 0 0 0 8.865 6.19l43.522-7.733a7.647 7.647 0 0 0 6.19-8.865l-15.702-88.377c-.74-4.158-4.71-6.937-8.867-6.198z"/>
        <path stroke="#F3F3F3" stroke-width="6" d="M76.69 70.211a6.017 6.017 0 0 1-8.35-1.584 6.018 6.018 0 0 1 1.583-8.351 6.017 6.017 0 0 1 8.351 1.584 6.017 6.017 0 0 1-1.584 8.351zm10.245-16.716c-.333-.387-1.036-.369-1.457-.081-1.365.929-3.122.953-4.474.059a4.015 4.015 0 0 1-1.676-4.25 1 1 0 0 0-.674-1.184 17.779 17.779 0 0 0-3.982-.776 1.002 1.002 0 0 0-1.069.862c-.219 1.588-1.564 3.039-3.147 3.364a4.002 4.002 0 0 1-4.214-1.863.998.998 0 0 0-1.323-.372 17.96 17.96 0 0 0-3.356 2.273 1 1 0 0 0-.157 1.354 4.009 4.009 0 0 1 .124 4.567c-.878 1.326-2.708 2.042-4.258 1.672a1.004 1.004 0 0 0-1.188.671 17.94 17.94 0 0 0-.787 4.023c-.042.529.336.997.86 1.071a3.992 3.992 0 0 1 3.364 3.148c.32 1.575-.414 3.23-1.87 4.22-.482.307-.603.853-.362 1.318a18.062 18.062 0 0 0 2.3 3.391c.333.389 1.05.358 1.476.067 1.274-.916 3.066-.962 4.454-.046a4.006 4.006 0 0 1 1.675 4.249c-.119.51.174 1.027.674 1.185 1.293.41 2.633.671 3.98.778.528.043.998-.334 1.072-.861.22-1.593 1.566-3.043 3.144-3.364a3.994 3.994 0 0 1 4.216 1.86c.273.456.855.618 1.324.372a17.888 17.888 0 0 0 3.357-2.273c.4-.342.465-.932.156-1.355a4.006 4.006 0 0 1-.126-4.564c.885-1.335 2.711-2.043 4.26-1.673a1.007 1.007 0 0 0 1.188-.671c.415-1.306.68-2.659.787-4.023a1 1 0 0 0-.86-1.072 3.991 3.991 0 0 1-3.365-3.147c-.316-1.552.356-3.197 1.672-4.093l.187-.121c.451-.256.62-.853.374-1.324a18.025 18.025 0 0 0-2.299-3.391zM101.622 86.295a4.42 4.42 0 0 1-5.576-2.813 4.421 4.421 0 0 1 2.812-5.576 4.42 4.42 0 0 1 5.576 2.813 4.42 4.42 0 0 1-2.812 5.576zm10.625-9.728c-.157-.34-.656-.47-1.013-.353a2.94 2.94 0 0 1-3.171-.864 2.948 2.948 0 0 1-.321-3.342.735.735 0 0 0-.236-.973 13.086 13.086 0 0 0-2.655-1.355.737.737 0 0 0-.931.391c-.476 1.078-1.72 1.829-2.903 1.738a2.942 2.942 0 0 1-2.6-2.17.733.733 0 0 0-.857-.531c-.976.201-1.924.509-2.832.924a.737.737 0 0 0-.385.925 2.946 2.946 0 0 1-.838 3.25c-.89.758-2.327.893-3.346.317a.74.74 0 0 0-.976.233 13.147 13.147 0 0 0-1.372 2.681.738.738 0 0 0 .39.931 2.933 2.933 0 0 1 1.737 2.906c-.093 1.176-.947 2.196-2.176 2.601a.72.72 0 0 0-.523.857c.2.981.517 1.944.937 2.861.156.342.668.465 1.029.347 1.085-.389 2.36-.058 3.154.87.793.927.922 2.27.322 3.341a.736.736 0 0 0 .235.973 13.15 13.15 0 0 0 2.653 1.357.737.737 0 0 0 .932-.391c.478-1.08 1.723-1.831 2.902-1.738a2.935 2.935 0 0 1 2.6 2.169c.1.377.478.61.86.531a13.263 13.263 0 0 0 2.83-.925.738.738 0 0 0 .387-.925 2.94 2.94 0 0 1 .836-3.248c.896-.764 2.329-.893 3.348-.317a.74.74 0 0 0 .975-.234 13.196 13.196 0 0 0 1.372-2.681.735.735 0 0 0-.39-.931 2.933 2.933 0 0 1-1.738-2.905 2.963 2.963 0 0 1 2.01-2.552l.157-.047a.737.737 0 0 0 .533-.859 13.296 13.296 0 0 0-.936-2.862z"/>
        <path fill="#FFF" d="M76.518 70.329a6.017 6.017 0 0 1-8.351-1.584 6.017 6.017 0 0 1 1.584-8.351 6.017 6.017 0 0 1 8.35 1.584 6.017 6.017 0 0 1-1.583 8.35m10.244-16.715c-.332-.387-1.035-.37-1.456-.081-1.365.929-3.122.953-4.474.059a4.014 4.014 0 0 1-1.676-4.25 1 1 0 0 0-.674-1.184 17.846 17.846 0 0 0-3.982-.776 1.003 1.003 0 0 0-1.07.862c-.218 1.588-1.563 3.039-3.146 3.364a4.002 4.002 0 0 1-4.214-1.863.999.999 0 0 0-1.323-.372c-1.2.629-2.325 1.39-3.356 2.273-.4.342-.467.932-.158 1.354a4.007 4.007 0 0 1 .125 4.567c-.878 1.326-2.708 2.043-4.258 1.672a1.005 1.005 0 0 0-1.188.67 17.83 17.83 0 0 0-.787 4.024c-.042.529.336.997.86 1.07a3.995 3.995 0 0 1 3.364 3.15c.319 1.574-.415 3.229-1.87 4.22a.98.98 0 0 0-.362 1.317 18.062 18.062 0 0 0 2.3 3.39c.333.39 1.049.359 1.476.068 1.274-.916 3.066-.961 4.454-.046a4.006 4.006 0 0 1 1.675 4.25 1.003 1.003 0 0 0 .674 1.184 17.86 17.86 0 0 0 3.98.778c.528.043.998-.334 1.072-.861.22-1.593 1.565-3.043 3.144-3.364a3.994 3.994 0 0 1 4.216 1.86c.273.456.854.618 1.324.372a17.888 17.888 0 0 0 3.356-2.273c.399-.342.466-.931.157-1.355a4.006 4.006 0 0 1-.126-4.564c.885-1.335 2.71-2.043 4.26-1.673a1.006 1.006 0 0 0 1.188-.671c.415-1.306.679-2.66.787-4.023a1.002 1.002 0 0 0-.86-1.072 3.992 3.992 0 0 1-3.365-3.146 4.034 4.034 0 0 1 1.672-4.094l.187-.121c.45-.256.62-.853.374-1.324a17.982 17.982 0 0 0-2.3-3.391M101.462 86.403a4.42 4.42 0 0 1-5.576-2.813 4.421 4.421 0 0 1 2.812-5.576 4.42 4.42 0 0 1 5.576 2.813 4.42 4.42 0 0 1-2.812 5.576m10.625-9.728c-.157-.34-.656-.47-1.013-.353a2.94 2.94 0 0 1-3.17-.864 2.948 2.948 0 0 1-.322-3.342.735.735 0 0 0-.236-.973 13.086 13.086 0 0 0-2.655-1.355.737.737 0 0 0-.93.391c-.477 1.078-1.72 1.83-2.904 1.738a2.942 2.942 0 0 1-2.599-2.17.733.733 0 0 0-.858-.53c-.976.2-1.924.508-2.832.923a.737.737 0 0 0-.385.925 2.946 2.946 0 0 1-.838 3.25c-.89.758-2.327.893-3.346.317a.74.74 0 0 0-.976.233 13.147 13.147 0 0 0-1.372 2.681.738.738 0 0 0 .391.931 2.933 2.933 0 0 1 1.736 2.906c-.093 1.176-.947 2.196-2.176 2.601a.72.72 0 0 0-.523.857c.201.981.517 1.944.937 2.861.156.342.668.465 1.03.347 1.084-.389 2.36-.058 3.153.871.793.926.922 2.27.322 3.34a.736.736 0 0 0 .235.973 13.15 13.15 0 0 0 2.653 1.357.736.736 0 0 0 .932-.39c.478-1.08 1.723-1.832 2.902-1.739a2.935 2.935 0 0 1 2.6 2.17c.101.376.478.61.86.53a13.263 13.263 0 0 0 2.831-.925.738.738 0 0 0 .386-.925 2.94 2.94 0 0 1 .836-3.248c.896-.764 2.33-.893 3.348-.317a.74.74 0 0 0 .975-.234 13.196 13.196 0 0 0 1.372-2.68.735.735 0 0 0-.39-.932 2.933 2.933 0 0 1-1.738-2.905 2.963 2.963 0 0 1 2.011-2.552l.156-.047a.737.737 0 0 0 .533-.859 13.296 13.296 0 0 0-.936-2.862"/>
    </g>
</svg>
