<svg xmlns="http://www.w3.org/2000/svg" xmlns:xlink="http://www.w3.org/1999/xlink" width="64" height="64" viewBox="0 0 64 64">
    <defs>
        <rect id="a" width="64" height="64" rx="16"/>
    </defs>
    <g fill="none" fill-rule="evenodd">
        <path fill="#FFF" d="M-217-151h375v667h-375z"/>
        <g>
            <mask id="b" fill="#fff">
                <use xlink:href="#a"/>
            </mask>
            <rect width="63" height="63" x=".5" y=".5" stroke="#F0F3F4" rx="16"/>
            <g mask="url(#b)">
                <path fill="#EC1D24" d="M26.463 14.762c-.12-.403-.54-.73-.938-.73h-6.927c-.398 0-.623.327-.503.73l3.911 13.216c.12.403.54.73.938.73h5.687c.398 0 .845-.327 1-.73l.42-1.098-3.588-12.118z"/>
                <path fill="#9D0B0F" d="M34.654 18.025h-6.84c-.451 0-.646.327-.786.73l-3.191 9.221a.106.106 0 0 0-.002.005c-.143.401-.577.725-.972.725H30.954c.398 0 .834-.327.975-.73l3.191-9.22c.14-.404-.068-.73-.466-.73"/>
                <path fill="#FFCD02" d="M35.652 18.751c-.12-.403-.539-.73-.937-.73h-6.927c-.398 0-.623.327-.503.73l3.25 11.051c.12.403.539.73.937.73h5.687c.398 0 .845-.327 1-.73l.42-1.098-2.927-9.953z"/>
                <path fill="#FF8300" d="M45.444 15.688h-7.351c-.398 0-.846.327-1 .73l-4.635 13.384-.003.009c-.158.4-.601.721-.997.721h8.791c.398 0 .846-.327 1-.73l4.635-13.384c.154-.403-.043-.73-.44-.73"/>
                <path fill="#EC1D24" d="M15.466 37.107H15.234c-1.303 0-2.36 1.07-2.36 2.396v3.415h1.7v-3.331c0-.5.396-.9.892-.9h.995v-1.58h-.995zm8.567 2.273c.016-.536.507-.974 1.115-.974.615 0 1.11.433 1.118.974h-2.233zm3.884.806c-.012-1.8-.976-3.215-2.77-3.215-1.54 0-2.782 1.26-2.782 2.998 0 1.874 1.13 2.983 2.795 3.017a2.853 2.853 0 0 0 2.51-1.521l-1.559-.413c-.189.29-.549.489-.963.489-.608 0-1.099-.442-1.115-.977h3.884c.005-.085 0-.289 0-.378zm-7.573.386a.898.898 0 0 1-.892.902.895.895 0 0 1-.884-.902V37.94a.826.826 0 0 0-.824-.832h-.886v3.24c0 1.458.778 2.639 2.594 2.639 1.819 0 2.596-1.181 2.596-2.639v-3.24h-1.704v3.465zm-9.767-4.893H8.876v1.428h-.803v1.58h.803v1.851c0 1.454 1.16 2.38 2.594 2.38h1.003v-1.513h-1.008a.894.894 0 0 1-.888-.9v-1.818l1.116-.004a.82.82 0 0 0 .78-.83v-.746h-1.896v-1.428z"/>
                <path fill="#F4811F" d="M39.221 36.953c-.699 0-1.318.334-1.759.869-.45.54-.726 1.271-.726 2.102 0 .808.276 1.65.726 2.185.441.534 1.06.867 1.76.867.68 0 1.305-.333 1.748-.867.453-.534.726-1.377.726-2.185 0-.82-.273-1.561-.726-2.102-.443-.535-1.067-.869-1.749-.869m.946 4.265c-.23.304-.553.493-.946.493-.399 0-.725-.19-.953-.493-.232-.309-.359-.824-.359-1.294 0-.475.127-.909.36-1.206.227-.308.553-.505.952-.505.393 0 .715.197.946.505.227.297.36.73.36 1.206 0 .47-.133.985-.36 1.294M44.58 36.953c-.55 0-1.088.31-1.42.773v-.006a.805.805 0 0 0-.172-.504.55.55 0 0 0-.42-.214.533.533 0 0 0-.418.219.83.83 0 0 0-.167.499v4.52c0 .19.068.368.175.487.107.12.256.202.42.202a.554.554 0 0 0 .41-.202.732.732 0 0 0 .173-.488v-2.588c0-.38.104-.748.295-1.004.193-.262.475-.434.846-.434.357 0 .621.155.795.404.186.256.28.619.28 1.023v2.6c0 .19.06.368.176.487.106.12.252.202.416.202a.546.546 0 0 0 .41-.202.748.748 0 0 0 .172-.488V39.6c0-.743-.176-1.409-.516-1.884-.334-.476-.835-.767-1.454-.762M51.367 41.206h-.007a.483.483 0 0 0-.392-.238.4.4 0 0 0-.313.144c-.355.41-.794.664-1.306.664a1.22 1.22 0 0 1-.9-.397c-.206-.226-.355-.635-.387-.997h3.155c.12 0 .228-.048.313-.13a.51.51 0 0 0 .14-.356c0-.833-.258-1.564-.676-2.098-.425-.523-1.028-.85-1.707-.845-.689 0-1.298.334-1.741.869-.443.54-.708 1.283-.708 2.102 0 .814.277 1.65.723 2.185.45.534 1.07.867 1.76.867.754 0 1.514-.38 1.977-.962v-.011a.767.767 0 0 0 .161-.459.75.75 0 0 0-.092-.338m-2.08-3.052c.327.007.603.143.817.369.193.208.324.492.38.82h-2.396c.064-.345.192-.625.379-.832.212-.227.488-.35.82-.357"/>
                <path fill="#F4811F" d="M55.926 37.737c0-.274-.145-.51-.346-.594h-.006a.385.385 0 0 0-.173-.047c-.213 0-.404.148-.488.385l-1.207 3.25-1.228-3.256a.53.53 0 0 0-.49-.38.518.518 0 0 0-.208.048h-.001c-.197.1-.33.338-.33.606 0 .036.009.071.02.118.044.161.158.5.31.916.43 1.206 1.16 3.088 1.312 3.493-.32.801-.838 1.461-1.545 1.84a.65.65 0 0 0-.23.215.631.631 0 0 0-.096.345c0 .16.052.309.146.422.083.112.21.195.352.195.068 0 .139-.035.194-.06 1.083-.498 1.842-1.532 2.286-2.732L55.88 38a.62.62 0 0 0 .046-.262M34.637 36.95c-.66 0-1.266.39-1.586.986a1.878 1.878 0 0 0-.52-.678 1.463 1.463 0 0 0-.924-.307c-.518 0-.893.307-1.192.755a.785.785 0 0 0-.16-.49.512.512 0 0 0-.407-.217.592.592 0 0 0-.45.218.837.837 0 0 0-.157.5v4.506c0 .189.06.366.155.494.095.13.277.212.428.212a.556.556 0 0 0 .43-.212.77.77 0 0 0 .164-.494v-2.572c0-.39.012-.748.174-1.008.17-.254.412-.424.76-.424.336.006.561.148.712.4.15.242.198.603.198 1.015v2.59c0 .374.24.705.553.705a.582.582 0 0 0 .434-.212.854.854 0 0 0 .171-.494v-2.63c0-.37.068-.72.24-.967a.866.866 0 0 1 .747-.407c.342.006.557.148.71.4.15.242.155.603.155 1.015v2.59c0 .188.059.365.16.493a.53.53 0 0 0 .42.212.584.584 0 0 0 .434-.212.774.774 0 0 0 .162-.494v-2.66c0-.755-.128-1.398-.433-1.863-.294-.483-.758-.754-1.378-.75"/>
                <path fill="#6C6E70" d="M27.304 50.594a.587.587 0 0 1-.05.13.288.288 0 0 1-.202.146.81.81 0 0 1-.183.018.825.825 0 0 1-.186-.018.341.341 0 0 1-.125-.055.262.262 0 0 1-.079-.094.577.577 0 0 1-.046-.13l-.787-3.352-.745 3.349a.528.528 0 0 1-.047.133.27.27 0 0 1-.082.094.357.357 0 0 1-.129.055.865.865 0 0 1-.189.018.772.772 0 0 1-.187-.02.36.36 0 0 1-.126-.056.292.292 0 0 1-.082-.094.56.56 0 0 1-.051-.134l-1.118-3.949a.453.453 0 0 1-.017-.174.52.52 0 0 1 .042-.161.423.423 0 0 1 .09-.13.386.386 0 0 1 .132-.086.37.37 0 0 1 .417.132.418.418 0 0 1 .073.152l.845 3.461.753-3.442a.436.436 0 0 1 .127-.237c.064-.06.17-.089.317-.089a.67.67 0 0 1 .186.023.38.38 0 0 1 .129.063c.034.027.062.06.083.1a.55.55 0 0 1 .049.134l.796 3.461.839-3.5a.39.39 0 0 1 .066-.142.349.349 0 0 1 .245-.139.368.368 0 0 1 .144.016.337.337 0 0 1 .122.08.42.42 0 0 1 .123.272.445.445 0 0 1-.015.161l-1.132 4.004z"/>
                <path fill="#6C6E70" d="M25.645 47.067l.826 3.515c.01.046.025.087.042.122a.224.224 0 0 0 .068.08c.029.021.066.037.11.048a.79.79 0 0 0 .178.017.77.77 0 0 0 .174-.017.25.25 0 0 0 .177-.128.548.548 0 0 0 .047-.12L28.4 46.58a.408.408 0 0 0-.098-.396.303.303 0 0 0-.108-.07.336.336 0 0 0-.128-.014.297.297 0 0 0-.218.123.355.355 0 0 0-.059.128l-.877 3.66-.833-3.622a.517.517 0 0 0-.045-.124.27.27 0 0 0-.073-.087.344.344 0 0 0-.116-.057.635.635 0 0 0-.175-.02c-.137 0-.235.026-.291.078a.4.4 0 0 0-.116.216L24.474 50l-.885-3.623a.379.379 0 0 0-.17-.23.319.319 0 0 0-.13-.042.338.338 0 0 0-.14.016.35.35 0 0 0-.117.076.387.387 0 0 0-.082.119.483.483 0 0 0-.039.15.415.415 0 0 0 .016.158l1.117 3.95c.013.049.03.09.048.125.019.033.043.06.071.081.03.022.068.039.113.05a.74.74 0 0 0 .178.019c.071 0 .132-.006.18-.017a.32.32 0 0 0 .116-.049.235.235 0 0 0 .07-.08.49.49 0 0 0 .044-.124l.78-3.512zm1.224 3.86a.866.866 0 0 1-.195-.02.381.381 0 0 1-.139-.06.3.3 0 0 1-.09-.108.62.62 0 0 1-.049-.14l-.75-3.188-.707 3.185a.572.572 0 0 1-.051.144.31.31 0 0 1-.094.107.396.396 0 0 1-.142.06.903.903 0 0 1-.198.02.817.817 0 0 1-.197-.021.401.401 0 0 1-.139-.063.33.33 0 0 1-.092-.106.602.602 0 0 1-.056-.143l-1.116-3.948a.49.49 0 0 1-.019-.189.563.563 0 0 1 .045-.173.464.464 0 0 1 .098-.142.424.424 0 0 1 .145-.094.405.405 0 0 1 .46.144.459.459 0 0 1 .08.166l.806 3.301.718-3.28a.475.475 0 0 1 .14-.258c.071-.066.183-.099.342-.099.076 0 .142.009.197.025.056.016.103.04.141.07.039.03.07.067.094.111.022.043.04.091.052.144l.76 3.303.8-3.342a.434.434 0 0 1 .073-.156.371.371 0 0 1 .272-.154.408.408 0 0 1 .16.017.38.38 0 0 1 .137.089.461.461 0 0 1 .135.297.487.487 0 0 1-.018.175l-1.131 4.004a.625.625 0 0 1-.053.137.327.327 0 0 1-.227.166.847.847 0 0 1-.192.018zM30.425 50.197c.217 0 .403-.033.555-.1.153-.066.278-.15.374-.25.097-.1.167-.21.212-.329a.96.96 0 0 0 .067-.337v-.765a.747.747 0 0 1-.22.112c-.088.029-.184.054-.288.076a9.677 9.677 0 0 1-.326.06c-.114.02-.225.043-.334.07-.109.027-.213.061-.312.102a.987.987 0 0 0-.261.155.682.682 0 0 0-.243.56c0 .124.02.226.063.307a.54.54 0 0 0 .17.199c.072.05.154.086.248.108.093.021.192.032.295.032m2.371.236a.437.437 0 0 1-.011.237.333.333 0 0 1-.115.151.494.494 0 0 1-.182.081.933.933 0 0 1-.21.024.614.614 0 0 1-.238-.045.513.513 0 0 1-.189-.135.645.645 0 0 1-.126-.228 1.015 1.015 0 0 1-.046-.32 1.56 1.56 0 0 1-.615.548 1.842 1.842 0 0 1-.79.18c-.19 0-.368-.024-.534-.072a1.107 1.107 0 0 1-.733-.642 1.52 1.52 0 0 1-.109-.608c0-.181.018-.338.055-.471.036-.134.086-.249.148-.346a.955.955 0 0 1 .225-.243c.087-.066.181-.121.282-.166.102-.045.209-.084.321-.115a6.93 6.93 0 0 1 .62-.14c.1-.017.2-.036.301-.057.1-.02.198-.044.292-.072.095-.028.178-.064.25-.107a.557.557 0 0 0 .176-.158.382.382 0 0 0 .065-.226.834.834 0 0 0-.078-.39.602.602 0 0 0-.204-.229.753.753 0 0 0-.283-.108 1.869 1.869 0 0 0-.65.001.838.838 0 0 0-.278.102.683.683 0 0 0-.208.194.791.791 0 0 0-.123.305.434.434 0 0 1-.158.256.33.33 0 0 1-.272.06.341.341 0 0 1-.131-.066.439.439 0 0 1-.146-.418c.042-.215.116-.398.224-.549.108-.15.239-.273.391-.367a1.67 1.67 0 0 1 .51-.207c.187-.043.382-.064.584-.064.123 0 .246.006.371.019s.245.037.36.073c.114.035.221.084.32.146.1.063.187.142.261.239.075.097.133.214.175.35.042.137.063.297.063.482v2.378l.001.216c.001.058.007.106.018.142.01.037.028.064.054.082.026.019.063.03.113.034.138.013.22.096.25.249"/>
                <path fill="#6C6E70" d="M31.595 48.489a.874.874 0 0 1-.17.076c-.089.029-.187.055-.292.077a9.886 9.886 0 0 1-.328.061 4.667 4.667 0 0 0-.331.069c-.107.026-.21.06-.307.1a.956.956 0 0 0-.25.149.646.646 0 0 0-.23.531c0 .116.02.213.059.288a.505.505 0 0 0 .158.185.663.663 0 0 0 .234.102c.09.02.187.031.287.031.211 0 .393-.032.54-.097.148-.064.27-.145.362-.241a.923.923 0 0 0 .203-.316.925.925 0 0 0 .065-.323v-.692zm-1.17 1.747c-.106 0-.208-.011-.304-.033a.735.735 0 0 1-.26-.114.58.58 0 0 1-.183-.213.707.707 0 0 1-.068-.324.723.723 0 0 1 .257-.591 1.03 1.03 0 0 1 .271-.161c.1-.041.207-.076.318-.104.11-.027.223-.05.336-.07.113-.019.222-.04.325-.06.103-.022.198-.047.284-.075a.71.71 0 0 0 .21-.106l.06-.047v.843c0 .11-.023.228-.07.35a1 1 0 0 1-.22.343c-.099.104-.229.19-.385.259a1.428 1.428 0 0 1-.571.103zm1.293-.168v.13a.98.98 0 0 0 .043.308.611.611 0 0 0 .119.214c.049.055.108.097.175.125a.715.715 0 0 0 .425.02.458.458 0 0 0 .168-.075.292.292 0 0 0 .101-.134.401.401 0 0 0 .01-.216c-.026-.135-.096-.206-.215-.217a.263.263 0 0 1-.132-.04.185.185 0 0 1-.07-.104.606.606 0 0 1-.018-.152l-.001-.217v-2.378c0-.18-.021-.338-.062-.47a1.06 1.06 0 0 0-.168-.338.96.96 0 0 0-.25-.23 1.317 1.317 0 0 0-.312-.142 1.822 1.822 0 0 0-.353-.071 2.92 2.92 0 0 0-.942.044 1.64 1.64 0 0 0-.499.202 1.324 1.324 0 0 0-.38.357 1.353 1.353 0 0 0-.218.533.402.402 0 0 0 .132.38.304.304 0 0 0 .118.059.287.287 0 0 0 .24-.053.383.383 0 0 0 .142-.233.834.834 0 0 1 .13-.32.723.723 0 0 1 .22-.204.88.88 0 0 1 .29-.107c.2-.037.434-.04.663-.001.11.019.21.057.298.113.088.057.161.14.216.243a.875.875 0 0 1 .084.41c0 .095-.025.179-.073.248a.597.597 0 0 1-.187.169 1.138 1.138 0 0 1-.26.11 3.509 3.509 0 0 1-.294.073c-.101.021-.202.04-.302.057a6.944 6.944 0 0 0-.616.14c-.11.03-.217.068-.316.112-.098.044-.19.098-.275.162a.924.924 0 0 0-.216.234c-.06.093-.109.205-.143.334-.036.13-.054.284-.054.46 0 .233.036.432.106.593a1.075 1.075 0 0 0 .709.62c.28.082.61.097.92.027.13-.03.257-.074.376-.132a1.52 1.52 0 0 0 .6-.535l.07-.108zm.56.897a.654.654 0 0 1-.252-.048.552.552 0 0 1-.203-.145.688.688 0 0 1-.134-.241.946.946 0 0 1-.043-.219 1.56 1.56 0 0 1-.566.469 1.768 1.768 0 0 1-.392.138 1.963 1.963 0 0 1-.958-.028 1.15 1.15 0 0 1-.758-.664 1.566 1.566 0 0 1-.112-.623c0-.184.019-.346.056-.482a1.26 1.26 0 0 1 .153-.356.999.999 0 0 1 .234-.253c.09-.067.187-.125.29-.17a2.33 2.33 0 0 1 .326-.117 6.929 6.929 0 0 1 .624-.142c.1-.017.2-.035.3-.056.099-.02.196-.044.288-.072.092-.026.173-.061.242-.102a.52.52 0 0 0 .163-.147.34.34 0 0 0 .06-.204.8.8 0 0 0-.075-.372.567.567 0 0 0-.19-.214.717.717 0 0 0-.27-.103 1.85 1.85 0 0 0-.637.002.803.803 0 0 0-.265.097.648.648 0 0 0-.196.182.758.758 0 0 0-.116.29.474.474 0 0 1-.173.28.369.369 0 0 1-.303.067.383.383 0 0 1-.147-.074.454.454 0 0 1-.163-.282.45.45 0 0 1 .003-.174c.043-.22.12-.409.231-.564a1.4 1.4 0 0 1 .402-.378c.156-.096.331-.167.522-.21.302-.07.634-.081.967-.047.127.013.25.038.367.074.117.037.228.087.33.151.103.065.194.148.27.248.077.1.138.222.182.363.042.14.064.305.064.493v2.378c0 .086 0 .158.002.215 0 .055.006.1.015.132.008.028.021.048.04.062.02.014.052.023.094.027.154.014.252.11.284.28a.478.478 0 0 1-.014.258.372.372 0 0 1-.127.169.536.536 0 0 1-.196.087.976.976 0 0 1-.22.025zM34.104 50.475c0 .062-.01.119-.029.17a.355.355 0 0 1-.477.211.323.323 0 0 1-.116-.085.418.418 0 0 1-.077-.129.463.463 0 0 1-.029-.167v-5.759c0-.06.01-.116.029-.166a.415.415 0 0 1 .077-.13.325.325 0 0 1 .116-.085.354.354 0 0 1 .477.212c.02.05.029.107.029.169v5.759z"/>
                <path fill="#6C6E70" d="M33.838 44.345a.479.479 0 0 0-.158.026.367.367 0 0 0-.214.193.354.354 0 0 0-.033.152v5.759a.352.352 0 0 0 .12.27.366.366 0 0 0 .127.075.489.489 0 0 0 .313 0 .405.405 0 0 0 .13-.074.344.344 0 0 0 .12-.271v-5.759a.343.343 0 0 0-.12-.272.408.408 0 0 0-.13-.073.465.465 0 0 0-.155-.026m0 6.578a.593.593 0 0 1-.195-.032.46.46 0 0 1-.266-.234.417.417 0 0 1-.039-.182v-5.759a.421.421 0 0 1 .144-.323.463.463 0 0 1 .161-.093.606.606 0 0 1 .389 0c.06.021.113.052.16.09a.42.42 0 0 1 .146.326v5.759a.42.42 0 0 1-.147.325c-.046.04-.1.07-.16.091a.577.577 0 0 1-.193.032M35.864 50.475c0 .062-.01.119-.029.17a.355.355 0 0 1-.477.211.323.323 0 0 1-.116-.085.418.418 0 0 1-.077-.129.463.463 0 0 1-.029-.167v-5.759c0-.06.01-.116.03-.166a.415.415 0 0 1 .076-.13.325.325 0 0 1 .116-.085.354.354 0 0 1 .477.212c.02.05.029.107.029.169v5.759z"/>
                <path fill="#6C6E70" d="M35.598 44.345a.479.479 0 0 0-.157.026.367.367 0 0 0-.215.193.354.354 0 0 0-.033.152v5.759a.352.352 0 0 0 .12.27.366.366 0 0 0 .127.075.489.489 0 0 0 .314 0 .405.405 0 0 0 .128-.074.344.344 0 0 0 .12-.271v-5.759a.343.343 0 0 0-.12-.272.408.408 0 0 0-.128-.073.465.465 0 0 0-.156-.026m0 6.578a.593.593 0 0 1-.195-.032.46.46 0 0 1-.266-.234.417.417 0 0 1-.039-.182v-5.759a.421.421 0 0 1 .144-.323.463.463 0 0 1 .161-.093.606.606 0 0 1 .389 0c.06.021.114.052.16.09a.42.42 0 0 1 .146.326v5.759a.42.42 0 0 1-.147.325c-.046.04-.1.07-.16.091a.577.577 0 0 1-.193.032M38.532 46.748a1.034 1.034 0 0 0-.812.371 1.332 1.332 0 0 0-.235.4 1.67 1.67 0 0 0-.104.488h2.3c0-.192-.027-.365-.08-.52a1.138 1.138 0 0 0-.23-.397.998.998 0 0 0-.362-.253 1.232 1.232 0 0 0-.477-.089zM37.38 48.72c0 .202.025.392.076.57.05.18.127.336.231.47.104.135.235.241.393.32.157.078.343.117.557.117.23 0 .43-.056.603-.17.173-.112.301-.291.385-.536a.374.374 0 0 1 .18-.226.296.296 0 0 1 .258-.003c.046.019.086.046.12.082.033.035.058.076.076.12a.429.429 0 0 1 .008.298c-.07.191-.157.36-.264.505a1.574 1.574 0 0 1-.84.585c-.171.05-.354.074-.549.074-.332 0-.62-.061-.865-.184a1.705 1.705 0 0 1-.611-.513 2.33 2.33 0 0 1-.37-.782 4.153 4.153 0 0 1-.139-.992c0-.35.047-.674.14-.971.094-.297.226-.553.397-.77.171-.216.375-.385.613-.508.238-.122.5-.183.786-.183.222 0 .422.03.602.092a1.627 1.627 0 0 1 .835.633c.1.147.182.306.246.478s.111.352.142.54c.03.189.046.378.046.57a.407.407 0 0 1-.102.27.358.358 0 0 1-.112.083.312.312 0 0 1-.136.03h-2.706z"/>
                <path fill="#6C6E70" d="M37.422 47.968h2.22a1.533 1.533 0 0 0-.078-.468 1.103 1.103 0 0 0-.221-.383.965.965 0 0 0-.349-.244 1.2 1.2 0 0 0-.462-.086 1 1 0 0 0-.783.358c-.095.11-.172.24-.228.389a1.628 1.628 0 0 0-.099.434zm2.297.078h-2.38l.003-.042a1.72 1.72 0 0 1 .107-.498 1.38 1.38 0 0 1 .242-.412 1.077 1.077 0 0 1 .84-.384c.18 0 .346.03.492.091.147.061.274.15.376.263.103.113.183.251.237.41.055.159.083.338.083.533v.039zm-1.153-1.984c-.279 0-.537.06-.769.18-.231.119-.433.286-.6.497a2.354 2.354 0 0 0-.39.757 3.19 3.19 0 0 0-.139.96c.01.353.056.683.138.98.081.297.204.556.363.77.159.213.36.382.598.502.238.119.523.18.848.18.19 0 .371-.025.538-.073a1.542 1.542 0 0 0 .82-.571c.105-.142.191-.309.259-.496a.392.392 0 0 0-.007-.269.348.348 0 0 0-.07-.108.31.31 0 0 0-.105-.073.259.259 0 0 0-.228.002c-.072.036-.125.103-.16.204-.086.252-.221.44-.4.556a1.119 1.119 0 0 1-.624.176c-.219 0-.412-.041-.574-.122a1.162 1.162 0 0 1-.406-.33 1.41 1.41 0 0 1-.238-.483 2.133 2.133 0 0 1-.078-.581v-.04h2.745c.042 0 .082-.008.12-.026a.322.322 0 0 0 .167-.183.37.37 0 0 0 .024-.135c0-.188-.015-.378-.045-.563a2.842 2.842 0 0 0-.14-.533 2.166 2.166 0 0 0-.242-.47 1.597 1.597 0 0 0-.816-.62 1.822 1.822 0 0 0-.589-.088zm.05 4.903c-.338 0-.634-.063-.883-.188a1.75 1.75 0 0 1-.625-.524 2.38 2.38 0 0 1-.376-.796 4.212 4.212 0 0 1-.14-1c0-.355.048-.686.142-.985.095-.3.23-.563.403-.782a1.91 1.91 0 0 1 .626-.518c.242-.125.512-.188.803-.188.225 0 .432.031.614.094a1.668 1.668 0 0 1 .854.648c.102.148.186.312.25.486.066.174.114.358.145.548.03.19.046.384.046.576a.449.449 0 0 1-.112.297.399.399 0 0 1-.124.091.351.351 0 0 1-.152.035H37.42c.003.183.028.358.074.521.05.173.125.326.226.456.1.13.227.233.379.309.151.075.333.113.54.113.22 0 .416-.055.582-.163.165-.107.29-.281.37-.517a.414.414 0 0 1 .198-.248.335.335 0 0 1 .291-.004c.05.02.095.052.132.091.037.04.065.084.085.133a.467.467 0 0 1 .008.324c-.07.195-.16.368-.27.516a1.624 1.624 0 0 1-.38.373c-.144.1-.306.176-.48.226-.173.05-.362.076-.559.076zM42.04 46.129h.5a.3.3 0 0 1 .235.108.375.375 0 0 1 .068.116.415.415 0 0 1 .024.144.415.415 0 0 1-.092.261.306.306 0 0 1-.235.11h-.5v2.83c0 .109.015.197.046.264a.33.33 0 0 0 .13.148.433.433 0 0 0 .191.057c.074.005.151.002.234-.009a.305.305 0 0 1 .133.01.271.271 0 0 1 .107.063c.03.03.055.065.073.107a.43.43 0 0 1 .033.137.374.374 0 0 1-.066.263.307.307 0 0 1-.226.127 1.838 1.838 0 0 1-.583-.008 1.006 1.006 0 0 1-.435-.19.875.875 0 0 1-.272-.373 1.499 1.499 0 0 1-.093-.558v-2.868h-.381a.3.3 0 0 1-.235-.11.394.394 0 0 1-.092-.261.411.411 0 0 1 .092-.26.3.3 0 0 1 .235-.108h.38V45.09c0-.06.01-.115.03-.166a.417.417 0 0 1 .077-.13.326.326 0 0 1 .116-.084.354.354 0 0 1 .476.21c.02.051.03.108.03.17v1.039z"/>
                <path fill="#6C6E70" d="M40.93 46.168a.263.263 0 0 0-.205.095.339.339 0 0 0-.06.104.374.374 0 0 0-.022.13.374.374 0 0 0 .082.236.263.263 0 0 0 .206.096h.419v2.907c0 .211.03.394.09.543a.84.84 0 0 0 .26.357c.114.09.255.15.42.183.166.032.358.035.57.007a.268.268 0 0 0 .2-.111.333.333 0 0 0 .059-.237.393.393 0 0 0-.03-.125.284.284 0 0 0-.064-.093.235.235 0 0 0-.093-.055.27.27 0 0 0-.116-.008 1.192 1.192 0 0 1-.242.008.471.471 0 0 1-.208-.061.37.37 0 0 1-.144-.166.665.665 0 0 1-.051-.28v-2.87h.54a.263.263 0 0 0 .205-.095.36.36 0 0 0 .083-.236.378.378 0 0 0-.022-.13.34.34 0 0 0-.06-.104.263.263 0 0 0-.206-.095H42V45.09a.438.438 0 0 0-.026-.155.318.318 0 0 0-.174-.19.322.322 0 0 0-.252 0 .288.288 0 0 0-.103.074.377.377 0 0 0-.07.119.429.429 0 0 0-.026.152v1.078h-.42zm1.482 4.755c-.109 0-.212-.01-.307-.028a1.049 1.049 0 0 1-.452-.198.917.917 0 0 1-.284-.388 1.545 1.545 0 0 1-.096-.573v-2.83h-.342a.338.338 0 0 1-.264-.123.434.434 0 0 1-.101-.286c0-.056.009-.11.027-.157a.413.413 0 0 1 .074-.128.34.34 0 0 1 .264-.121h.342v-1c0-.066.01-.126.032-.18a.459.459 0 0 1 .084-.144.366.366 0 0 1 .13-.093.397.397 0 0 1 .312 0 .396.396 0 0 1 .215.233c.021.055.031.116.031.183v1h.463a.34.34 0 0 1 .264.122c.032.036.057.08.074.128a.454.454 0 0 1 .027.157.454.454 0 0 1-.1.286.342.342 0 0 1-.265.124h-.463v2.79a.59.59 0 0 0 .044.248c.028.06.066.103.114.132.049.029.108.046.175.05.07.006.146.003.226-.007a.343.343 0 0 1 .15.011.31.31 0 0 1 .121.072.36.36 0 0 1 .082.119.47.47 0 0 1 .036.15.413.413 0 0 1-.073.288.345.345 0 0 1-.253.144c-.1.012-.196.019-.287.019z"/>
            </g>
        </g>
    </g>
</svg>
